<svg xmlns="http://www.w3.org/2000/svg" viewBox="0 0 240 150">
  <path d="M22 112 C 42 60, 82 18, 120 18 C 158 18, 198 60, 218 112 C 188 96, 150 90, 120 90 C 90 90, 52 96, 22 112 Z" fill="#141414"/>
  <path d="M8 118 C 60 92, 180 92, 232 118 C 180 136, 60 136, 8 118 Z" fill="#232323"/>
  <path d="M8 118 C 60 92, 180 92, 232 118" stroke="#c9a227" stroke-width="4" fill="none"/>
  <circle cx="120" cy="56" r="15" fill="#f4f4f4"/>
  <circle cx="114" cy="54" r="3.6" fill="#141414"/><circle cx="126" cy="54" r="3.6" fill="#141414"/>
  <rect x="116" y="62" width="8" height="6" rx="1" fill="#141414"/>
  <path d="M98 80 L 142 96 M 142 80 L 98 96" stroke="#f4f4f4" stroke-width="5" stroke-linecap="round"/>
</svg>
